<?xml version="1.0" encoding="UTF-8"?>
<svg width="512" height="512" viewBox="0 0 512 512" fill="none" xmlns="http://www.w3.org/2000/svg">
  <!-- Chef's hat top -->
  <path d="M256 80C176 80 112 144 112 224C112 248 120 270 134 288H378C392 270 400 248 400 224C400 144 336 80 256 80Z" fill="#4B5563"/>

  <!-- Hat base -->
  <rect x="134" y="288" width="244" height="32" fill="#4B5563"/>

  <!-- Log lines (representing data) -->
  <rect x="160" y="340" width="192" height="16" rx="8" fill="#3B82F6" opacity="0.9"/>
  <rect x="160" y="372" width="160" height="16" rx="8" fill="#3B82F6" opacity="0.7"/>
  <rect x="160" y="404" width="128" height="16" rx="8" fill="#3B82F6" opacity="0.5"/>

  <!-- Highlight on hat -->
  <path d="M256 96C196 96 144 148 144 208C144 220 146 232 150 242C186 178 288 178 362 242C366 232 368 220 368 208C368 148 316 96 256 96Z" fill="#6B7280" opacity="0.5"/>
</svg>